HIERARCHY
ROOT Hips
{
	OFFSET 0.00000 0.00000 0.00000
	CHANNELS 6 Xposition Yposition Zposition Zrotation Yrotation Xrotation 
	JOINT LHipJoint
	{
		OFFSET 0 0 0
		CHANNELS 3 Zrotation Yrotation Xrotation
		JOINT LeftUpLeg
		{
			OFFSET 1.62964 -1.40469 0.78906
			CHANNELS 3 Zrotation Yrotation Xrotation
			JOINT LeftLeg
			{
				OFFSET 2.29640 -6.30932 0.00000
				CHANNELS 3 Zrotation Yrotation Xrotation
				JOINT LeftFoot
				{
					OFFSET 2.29451 -6.30412 0.00000
					CHANNELS 3 Zrotation Yrotation Xrotation
					JOINT LeftToeBase
					{
						OFFSET 0.03611 -0.09921 1.56387
						CHANNELS 3 Zrotation Yrotation Xrotation
						End Site
						{
							OFFSET 0.00000 -0.00000 0.80291
						}
					}
				}
			}
		}
	}
	JOINT RHipJoint
	{
		OFFSET 0 0 0
		CHANNELS 3 Zrotation Yrotation Xrotation
		JOINT RightUpLeg
		{
			OFFSET -1.73712 -1.40469 0.78906
			CHANNELS 3 Zrotation Yrotation Xrotation
			JOINT RightLeg
			{
				OFFSET -2.28137 -6.26801 0.00000
				CHANNELS 3 Zrotation Yrotation Xrotation
				JOINT RightFoot
				{
					OFFSET -2.28681 -6.28298 0.00000
					CHANNELS 3 Zrotation Yrotation Xrotation
					JOINT RightToeBase
					{
						OFFSET -0.15927 -0.43759 1.61103
						CHANNELS 3 Zrotation Yrotation Xrotation
						End Site
						{
							OFFSET -0.00000 -0.00000 0.84630
						}
					}
				}
			}
		}
	}
	JOINT LowerBack
	{
		OFFSET 0 0 0
		CHANNELS 3 Zrotation Yrotation Xrotation
		JOINT Spine
		{
			OFFSET -0.04227 2.04338 -0.00225
			CHANNELS 3 Zrotation Yrotation Xrotation
			JOINT Spine1
			{
				OFFSET -0.02148 2.04482 -0.04273
				CHANNELS 3 Zrotation Yrotation Xrotation
				JOINT Neck
				{
					OFFSET 0 0 0
					CHANNELS 3 Zrotation Yrotation Xrotation
					JOINT Neck1
					{
						OFFSET 0.09180 1.44629 0.19359
						CHANNELS 3 Zrotation Yrotation Xrotation
						JOINT Head
						{
							OFFSET 0.00887 1.40645 0.14750
							CHANNELS 3 Zrotation Yrotation Xrotation
							End Site
							{
								OFFSET -0.00669 1.50671 0.03707
							}
						}
					}
				}
				JOINT LeftShoulder
				{
					OFFSET 0 0 0
					CHANNELS 3 Zrotation Yrotation Xrotation
					JOINT LeftArm
					{
						OFFSET 2.17674 1.86763 -0.06520
						CHANNELS 3 Zrotation Yrotation Xrotation
						JOINT LeftForeArm
						{
							OFFSET 4.65776 -0.00000 0.00000
							CHANNELS 3 Zrotation Yrotation Xrotation
							JOINT LeftHand
							{
								OFFSET 3.55539 -0.00000 0.00000
								CHANNELS 3 Zrotation Yrotation Xrotation
								JOINT LeftFingerBase
								{
									OFFSET 0 0 0
									CHANNELS 3 Zrotation Yrotation Xrotation
									JOINT LeftHandIndex1
									{
										OFFSET 0.70726 -0.00000 0.00000
										CHANNELS 3 Zrotation Yrotation Xrotation
										End Site
										{
											OFFSET 0.57022 -0.00000 0.00000
										}
									}
								}
								JOINT LThumb
								{
									OFFSET 0 0 0
									CHANNELS 3 Zrotation Yrotation Xrotation
									End Site
									{
										OFFSET 0.57892 -0.00000 0.57892
									}
								}
							}
						}
					}
				}
				JOINT RightShoulder
				{
					OFFSET 0 0 0
					CHANNELS 3 Zrotation Yrotation Xrotation
					JOINT RightArm
					{
						OFFSET -2.80694 1.55459 -0.32496
						CHANNELS 3 Zrotation Yrotation Xrotation
						JOINT RightForeArm
						{
							OFFSET -4.71925 -0.00000 -0.00000
							CHANNELS 3 Zrotation Yrotation Xrotation
							JOINT RightHand
							{
								OFFSET -3.56990 -0.00000 0.00000
								CHANNELS 3 Zrotation Yrotation Xrotation
								JOINT RightFingerBase
								{
									OFFSET 0 0 0
									CHANNELS 3 Zrotation Yrotation Xrotation
									JOINT RightHandIndex1
									{
										OFFSET -0.50776 -0.00000 0.00000
										CHANNELS 3 Zrotation Yrotation Xrotation
										End Site
										{
											OFFSET -0.40937 -0.00000 0.00000
										}
									}
								}
								JOINT RThumb
								{
									OFFSET 0 0 0
									CHANNELS 3 Zrotation Yrotation Xrotation
									End Site
									{
										OFFSET -0.41562 -0.00000 0.41562
									}
								}
							}
						}
					}
				}
			}
		}
	}
}
MOTION
Frames: 12
Frame Time: .0083333
-1.1018 19.6077 20.4801 0 0 0 0 0 0 -21 0 0 0 0 0 0 0 0 0 0 0 0 0 0 21 0 0 0 0 0 0 0 0 0 0 0 0 0 0 0 0 0 0 0 0 0 0 -16 0 0 21 0 0 11 0 0 0 -8 0 0 0 0 0 0 0 0 0 0 0 0 0 0 0 0 0 0 0 0 8 0 0 0 0 0 0 0 0 0 0 0 0 0 0 0 0 0
-1.1018 19.6077 20.4801 178.6790 -3.8052 -152.3680 0.0000 0.0000 0.0000 -21.4799 -14.5974 -20.6674 0.1379 2.3933 6.5939 0.1133 -4.0111 -6.2006 0.2521 -3.2304 -8.9209 0.0000 0.0000 0.0000 18.4979 13.1222 -21.9394 -0.1702 -2.6577 7.3273 -1.0687 4.4944 -18.5576 -1.8632 8.5752 -24.4753 -6.1417 -2.3952 -30.9567 -0.0246 -1.8348 -2.0048 2.4755 -1.5384 14.0833 -1.2417 -2.8182 -4.2003 5.5716 -4.9803 12.8420 1.6339 -2.4111 4.7078 0.0000 -0.0000 0.0000 -84.3134 1.5101 19.2948 11.4481 -18.9718 -1.9191 -0.0000 -0.0000 3.5763 21.7014 -10.9254 -4.3136 -7.1250 0.0000 -0.0000 -3.7919 18.2583 2.4183 0.0000 -0.0000 0.0000 91.1679 -5.6051 4.8309 -16.3010 25.9271 -3.7766 0.0000 -0.0000 -2.1381 -4.9415 -57.1027 4.1521 7.1250 -0.0000 -0.0000 83.8372 -73.8521 -66.8641
-1.0977 19.6102 20.4747 178.6280 -3.8918 -152.6320 0.0000 0.0000 0.0000 -21.6019 -14.3238 -20.3288 0.1321 2.3426 6.4534 0.1043 -4.1756 -6.0290 0.2222 -3.0343 -8.3742 0.0000 0.0000 0.0000 18.5371 13.0782 -21.4790 -0.1625 -2.5970 7.1588 -1.0788 4.3106 -18.6676 -1.8838 8.6198 -24.6131 -6.2480 -2.4622 -30.7409 -0.0292 -1.8754 -1.9323 2.5187 -1.5552 14.0784 -1.1008 -2.8299 -4.2707 5.4292 -4.9691 12.7396 1.5674 -2.4019 4.6815 0.0000 0.0000 0.0000 -84.2719 1.5645 19.2839 11.4683 -19.0025 -1.9256 -0.0000 -0.0000 3.5360 21.6745 -10.9673 -4.3240 -7.1250 0.0000 -0.0000 -3.8122 18.2159 2.4349 0.0000 0.0000 0.0000 91.1719 -5.5185 4.8553 -16.2193 25.8171 -3.7410 0.0000 -0.0000 -2.1103 -5.1106 -57.0497 4.2919 7.1250 -0.0000 -0.0000 83.6257 -73.9079 -66.7162
-1.0850 19.6194 20.4554 178.4370 -4.1869 -153.2950 0.0000 0.0000 0.0000 -21.9316 -13.7411 -19.5140 0.1240 2.2704 6.2535 0.0823 -4.6887 -5.6600 0.1918 -2.8205 -7.7793 0.0000 0.0000 0.0000 18.5725 13.1336 -20.1470 -0.1386 -2.3990 6.6098 -1.0869 3.5000 -18.8490 -1.8437 8.5327 -24.3442 -6.6103 -2.6812 -30.2588 -0.0182 -2.0091 -1.7170 2.6884 -1.6196 14.1357 -1.0640 -2.8092 -4.3650 5.4305 -4.9278 12.6528 1.5634 -2.3753 4.6687 0.0000 -0.0000 0.0000 -84.2286 1.5384 19.1841 11.4487 -18.9727 -1.9193 -0.0000 -0.0000 3.5718 21.6040 -11.2201 -4.4062 -7.1250 0.0000 -0.0000 -3.8696 17.9523 2.4942 0.0000 -0.0000 0.0000 91.2286 -5.4808 4.8150 -16.2317 25.8338 -3.7464 0.0000 -0.0000 -2.1187 -5.1417 -57.0655 4.3188 7.1250 -0.0000 -0.0000 83.6758 -73.9198 -66.7801
-1.0855 19.6202 20.4550 178.4120 -4.1563 -153.3510 0.0000 0.0000 0.0000 -22.0192 -13.5248 -19.5360 0.1251 2.2798 6.2795 0.0772 -4.8559 -5.5999 0.2000 -2.8796 -7.9437 0.0000 0.0000 0.0000 18.5397 13.2088 -20.0230 -0.1370 -2.3858 6.5731 -1.0794 3.3699 -18.8011 -1.8084 8.4551 -24.1051 -6.6584 -2.6969 -30.2347 -0.0282 -2.0112 -1.7054 2.7033 -1.6227 14.1389 -1.1273 -2.7096 -4.3395 5.4859 -4.7772 12.5338 1.6006 -2.3004 4.6253 0.0000 0.0000 0.0000 -84.2313 1.5515 18.9872 11.4016 -18.9012 -1.9040 -0.0000 -0.0000 3.6809 21.6337 -11.4908 -4.5175 -7.1250 0.0000 -0.0000 -3.8577 17.6610 2.5112 0.0000 0.0000 0.0000 91.2364 -5.5045 4.8982 -16.2421 25.8478 -3.7509 0.0000 -0.0000 -2.1329 -5.1969 -57.2108 4.3724 7.1250 -0.0000 -0.0000 84.1743 -73.9474 -67.3131
-1.0868 19.6198 20.4566 178.4360 -4.1571 -153.3420 0.0000 0.0000 0.0000 -22.0131 -13.4119 -19.6035 0.1252 2.2812 6.2835 0.0729 -4.9203 -5.5202 0.2084 -2.9394 -8.1101 0.0000 0.0000 0.0000 18.5521 13.2817 -19.9967 -0.1356 -2.3734 6.5389 -1.0759 3.2776 -18.7848 -1.8615 8.5713 -24.4633 -6.6395 -2.6954 -30.2627 -0.0213 -2.0171 -1.7140 2.6972 -1.6252 14.1420 -1.1289 -2.7638 -4.2825 5.4809 -4.8560 12.5499 1.5956 -2.3420 4.6233 -0.0000 -0.0000 0.0000 -84.2185 1.6069 18.9807 11.3853 -18.8764 -1.8987 -0.0000 -0.0000 3.6437 21.6761 -11.5442 -4.5479 -7.1250 0.0000 -0.0000 -3.8298 17.6002 2.4981 -0.0000 -0.0000 0.0000 91.2182 -5.5118 4.9860 -16.2296 25.8309 -3.7454 0.0000 -0.0000 -2.1035 -5.3841 -57.2968 4.5345 7.1250 -0.0000 -0.0000 84.4492 -74.0168 -67.6701
-1.0885 19.6190 20.4573 178.4490 -4.0983 -153.3130 0.0000 0.0000 0.0000 -22.0177 -13.3817 -19.6407 0.1251 2.2804 6.2812 0.0726 -4.9440 -5.5217 0.2100 -2.9506 -8.1412 0.0000 0.0000 0.0000 18.5123 13.5393 -19.9464 -0.1356 -2.3731 6.5380 -1.0750 3.0541 -18.8146 -1.8823 8.6164 -24.6027 -6.6374 -2.6618 -30.3477 -0.0330 -1.9666 -1.6995 2.7006 -1.6041 14.1911 -1.1773 -2.7622 -4.2199 5.5872 -4.8826 12.6400 1.6349 -2.3563 4.6448 -0.0000 0.0000 0.0000 -84.1880 1.5826 19.0157 11.3534 -18.8280 -1.8884 -0.0000 -0.0000 3.6686 21.6718 -11.2850 -4.4466 -7.1250 0.0000 -0.0000 -3.8241 17.8770 2.4711 -0.0000 0.0000 0.0000 91.2046 -5.4482 4.9584 -16.1982 25.7886 -3.7318 0.0000 -0.0000 -2.0545 -5.4286 -57.3458 4.5746 7.1250 -0.0000 -0.0000 84.6154 -74.0345 -67.8581
-1.0908 19.6186 20.4571 178.4080 -4.0495 -153.2440 0.0000 0.0000 0.0000 -22.0756 -13.4288 -19.6786 0.1249 2.2786 6.2764 0.0746 -4.9932 -5.5908 0.2014 -2.8895 -7.9714 0.0000 0.0000 0.0000 18.4174 13.6888 -19.9707 -0.1358 -2.3751 6.5436 -1.0734 2.9454 -18.8198 -1.8117 8.4623 -24.1272 -6.7109 -2.6762 -30.4753 -0.0310 -1.9555 -1.6947 2.7420 -1.6071 14.2532 -1.2900 -2.5968 -4.0683 5.6597 -4.6485 12.5437 1.6918 -2.2462 4.5849 0.0000 -0.0000 0.0000 -84.2239 1.5498 18.8573 11.2982 -18.7438 -1.8706 -0.0000 -0.0000 3.9001 21.6396 -10.9158 -4.2964 -7.1250 0.0000 -0.0000 -3.8352 18.2738 2.4447 0.0000 -0.0000 0.0000 91.1387 -5.3980 5.0153 -16.1633 25.7416 -3.7166 0.0000 -0.0000 -2.1074 -5.4045 -57.4497 4.5595 7.1250 -0.0000 -0.0000 84.9834 -74.0302 -68.2249
-1.0931 19.6185 20.4571 178.3470 -4.0429 -153.1800 0.0000 0.0000 0.0000 -22.1528 -13.4795 -19.7090 0.1243 2.2725 6.2592 0.0760 -5.0006 -5.6260 0.2021 -2.8944 -7.9850 0.0000 0.0000 0.0000 18.3209 13.7117 -20.0171 -0.1350 -2.3685 6.5253 -1.0778 2.9632 -18.8567 -1.7895 8.4132 -23.9763 -6.7884 -2.7305 -30.5775 -0.0197 -1.9963 -1.6861 2.7756 -1.6331 14.3139 -1.3417 -2.6059 -4.0639 5.6634 -4.6524 12.5161 1.7015 -2.2496 4.5770 0.0000 0.0000 0.0000 -84.2899 1.5258 18.5931 11.2546 -18.6775 -1.8566 -0.0000 -0.0000 4.1374 21.6193 -10.7168 -4.2149 -7.1250 0.0000 -0.0000 -3.8437 18.4879 2.4319 0.0000 0.0000 0.0000 91.0794 -5.3598 5.1314 -16.1566 25.7325 -3.7137 0.0000 -0.0000 -2.1923 -5.2919 -57.5555 4.4696 7.1250 -0.0000 -0.0000 85.3684 -73.9948 -68.5739
-1.0939 19.6182 20.4569 178.3710 -3.9710 -153.1890 0.0000 0.0000 0.0000 -22.1536 -13.4468 -19.6788 0.1220 2.2515 6.2011 0.0775 -4.9305 -5.6356 0.1988 -2.8709 -7.9196 0.0000 0.0000 0.0000 18.3279 13.7839 -19.9907 -0.1347 -2.3657 6.5173 -1.0779 2.9567 -18.8586 -1.8417 8.5283 -24.3305 -6.7689 -2.7230 -30.6229 -0.0161 -1.9843 -1.6480 2.7722 -1.6270 14.3774 -1.2820 -2.7873 -4.1223 5.6440 -4.8855 12.3992 1.6727 -2.3596 4.5583 -0.0000 -0.0000 0.0000 -84.3081 1.4739 18.4295 11.2290 -18.6383 -1.8484 -0.0000 -0.0000 4.2422 21.6237 -10.7061 -4.2117 -7.1250 0.0000 -0.0000 -3.8402 18.4988 2.4288 -0.0000 -0.0000 0.0000 91.0938 -5.3029 5.1403 -16.1827 25.7677 -3.7250 0.0000 -0.0000 -2.1733 -5.3601 -57.4343 4.5211 7.1250 -0.0000 -0.0000 84.9349 -74.0142 -68.1575
-1.0948 19.6177 20.4581 178.4100 -3.9853 -153.1790 0.0000 0.0000 0.0000 -22.1063 -13.4247 -19.6972 0.1201 2.2338 6.1523 0.0735 -4.9255 -5.5363 0.1894 -2.8025 -7.7294 0.0000 0.0000 0.0000 18.3843 13.6816 -20.0607 -0.1351 -2.3690 6.5266 -1.0748 3.0706 -18.8104 -1.8826 8.6170 -24.6045 -6.7128 -2.7135 -30.6343 -0.0158 -1.9906 -1.6481 2.7395 -1.6264 14.3821 -1.1544 -2.8720 -4.3005 5.4732 -5.0018 12.5637 1.5888 -2.4147 4.6361 -0.0000 0.0000 0.0000 -84.2802 1.4669 18.3798 11.2041 -18.6004 -1.8405 -0.0000 -0.0000 4.2801 21.5442 -10.8208 -4.2390 -7.1250 0.0000 -0.0000 -3.8997 18.3830 2.4766 -0.0000 0.0000 0.0000 91.1364 -5.3465 5.1769 -16.2539 25.8638 -3.7561 0.0000 -0.0000 -2.2493 -5.6948 -57.3166 4.7978 7.1250 -0.0000 -0.0000 84.4784 -74.1261 -67.8252
-1.0979 19.6170 20.4592 178.3790 -4.1071 -153.1660 0.0000 0.0000 0.0000 -22.1239 -13.4762 -19.7159 0.1209 2.2411 6.1725 0.0708 -5.0511 -5.5220 0.2021 -2.8944 -7.9849 0.0000 0.0000 0.0000 18.3702 13.5595 -20.0512 -0.1308 -2.3316 6.4230 -1.0770 3.0850 -18.8275 -1.8926 8.6388 -24.6718 -6.6987 -2.7567 -30.6249 -0.0242 -2.0523 -1.6556 2.6979 -1.6527 14.3745 -1.0010 -2.9065 -4.4016 5.2886 -5.0470 12.6808 1.5019 -2.4368 4.6827 0.0000 0.0000 0.0000 -84.2438 1.4975 18.3775 11.1876 -18.5752 -1.8352 -0.0000 -0.0000 4.2916 21.4072 -10.8472 -4.2195 -7.1250 0.0000 -0.0000 -3.9970 18.3665 2.5401 0.0000 0.0000 0.0000 91.1593 -5.3724 5.2288 -16.2877 25.9092 -3.7708 0.0000 -0.0000 -2.3080 -5.7281 -57.4660 4.8339 7.1250 -0.0000 -0.0000 85.0033 -74.1433 -68.3748
